# xmcd
#
# Track frame offsets:
#	150
#	16716
#	32360
#	50431
#	67358
#	79203
#	96034
#	107087
#	122153
#	133209
#	144891
#	158304
#	174924
#	188578
#	201074
#	214166
#	228053
#	238481
#	251539
#	259386
#
# Disc length: 3620 seconds
#
# Revision: 0
# Processed by: cddbd v1.5.1PL2 Copyright (c) Steve Scherf et al.
# Submitted via: audiograbber 1.82.02
#
DISCID=0d0e2214
DTITLE=Various Artist - Country-Hits 100 CD3
DYEAR=1900
DGENRE=Country
TTITLE0=Gordon Lightfoot - Diddley dee, diddley dee
TTITLE1=Tom Paxton - I can't help but wonder (where I've gone)
TTITLE2=It's a beautiful day - White bird
TTITLE3=Linda Ronstadt - I'm gonna love
TTITLE4=The Kendalls - Sweet desire
TTITLE5=Conway Twitty and Jackie Bell - Don't cry Joni
TTITLE6=Bill Anderson - I get the fever
TTITLE7=Brenda Lee and Nina Martinique - Silver threads and golden needles
TTITLE8=Mel McDaniel - Stand up
TTITLE9=Jerry Wallace - If you leave me tonight (I will cry)
TTITLE10=The Oak Ridge Boys - Hide thou me
TTITLE11=Lee Grennwood - Somebody's gonna love you
TTITLE12=T. Graham Brown - I tell it like it used to be
TTITLE13=Jerry Lee Lewis - Only you
TTITLE14=Kenny Rodgers - Ruby, don't take your love to town
TTITLE15=Wanda Jackson - Right or wrong
TTITLE16=Dave Dudley - Six days on the road
TTITLE17=Olivia Newton-John - If not for you
TTITLE18=Roger Miller - Dang me
TTITLE19=Bobby Bare - Green green grass of home
EXTD=
EXTT0=
EXTT1=
EXTT2=
EXTT3=
EXTT4=
EXTT5=
EXTT6=
EXTT7=
EXTT8=
EXTT9=
EXTT10=
EXTT11=
EXTT12=
EXTT13=
EXTT14=
EXTT15=
EXTT16=
EXTT17=
EXTT18=
EXTT19=
PLAYORDER=
